<?xml version="1.0" encoding="UTF-8"?>
<svg width="20px" height="20px" viewBox="0 0 20 20" version="1.1" xmlns="http://www.w3.org/2000/svg" xmlns:xlink="http://www.w3.org/1999/xlink">
    <title>toolbar-icon-mine</title>
    <g id="icon-set最新整理" stroke="none" stroke-width="1" fill="none" fill-rule="evenodd">
        <g id="images/h5/icon-set/index-theme-icon" transform="translate(-242.000000, -89.000000)" fill-rule="nonzero">
            <g id="toolbar-icon-mine" transform="translate(242.000000, 89.000000)">
                <g id="Group-6" transform="translate(1.000000, 1.000000)">
                    <path d="M12.3271106,18.6148685 C9.84305804,18.6148685 7.82476538,16.5965758 7.82476538,14.1125233 C7.82476538,11.6284708 9.84305804,9.61017812 12.3271106,9.61017812 C14.8111631,9.61017812 16.8294557,11.6284708 16.8294557,14.1125233 C16.8294557,16.5965758 14.8111631,18.6148685 12.3271106,18.6148685 Z" id="Path" fill="#ED1F23"></path>
                    <path d="M7.29690422,8.89601302 C6.73799241,8.89601302 6.1790806,8.80286105 5.65121944,8.58550646 C4.53339581,8.15079727 3.6950281,7.31242955 3.19821759,6.22565658 C2.70140709,5.13888361 2.70140709,3.92790802 3.13611628,2.81008439 C3.57082547,1.69226077 4.40919319,0.853893048 5.49596616,0.357082547 C6.58273913,-0.0776266405 11.2403376,-0.201829266 11.8303001,0.481285172 C12.1408066,0.822842391 12.0787053,1.50595683 11.6750468,3.27584424 C11.6439961,3.3689962 11.6439961,3.46214817 11.6129455,3.49319883 C11.5818948,3.71055342 11.5508442,3.89685736 11.5197935,4.0831613 C11.2403376,6.00830199 10.9608817,7.68503743 9.06679163,8.52340515 C8.50787982,8.7718104 7.91791735,8.89601302 7.29690422,8.89601302 Z M8.63208244,0.947045017 C7.51425882,0.947045017 6.36538454,1.04019698 5.89962469,1.22650092 C5.03020632,1.5991088 4.37814253,2.28222323 4.03658531,3.15164161 C3.6950281,4.02105999 3.72607875,4.95257967 4.09868663,5.82199805 C4.4712945,6.69141643 5.15440894,7.34348021 6.02382732,7.68503743 C6.89324569,8.02659465 7.85581604,8.02659465 8.69418376,7.65398677 C10.122514,7.03297364 10.3088179,5.79094739 10.5882738,3.92790802 C10.6193245,3.74160408 10.6503751,3.52424949 10.6814258,3.30689489 C10.6814258,3.27584424 10.7124764,3.18269227 10.7435271,3.02743899 C11.0540337,1.81646339 11.0850843,1.31965289 11.0850843,1.1022983 C10.7124764,1.00914633 9.68780476,0.947045017 8.63208244,0.947045017 Z M7.35900554,17.7454501 C5.49596616,17.7454501 3.75712941,17.5280955 2.45300184,17.124437 C0.434709188,16.5034238 0,15.6340055 0,14.9819417 C0,12.2494839 2.11144463,9.88963402 5.24756091,9.11336762 C5.37176353,9.08231696 5.4649155,9.11336762 5.55806747,9.17546893 C6.39643519,9.82753271 7.51425882,9.95173534 8.50787982,9.5480768 C8.72523441,9.45492483 8.94258901,9.33072221 9.12889294,9.17546893 C9.22204491,9.11336762 9.34624754,9.08231696 9.43939951,9.11336762 C12.5134145,9.88963402 14.6869604,12.2805346 14.6869604,14.9819417 C14.6869604,17.031285 10.7435271,17.7454501 7.35900554,17.7454501 Z M5.24756091,9.92068468 C2.60825513,10.6348498 0.745215751,12.7152438 0.745215751,14.9819417 C0.745215751,16.0997653 3.63292678,16.9691837 7.32795488,16.9691837 C11.022983,16.9691837 13.910694,16.0997653 13.910694,14.9819417 C13.910694,12.6841931 12.0787053,10.6348498 9.40834885,9.92068468 C9.19099426,10.075938 9.00469032,10.16909 8.78733572,10.2622419 C7.63846144,10.7901031 6.30328322,10.6348498 5.24756091,9.92068468 Z M7.04849897,6.72246708 C6.80009372,6.72246708 6.58273913,6.50511249 6.58273913,6.25670724 C6.58273913,6.00830199 6.76904307,5.79094739 7.04849897,5.79094739 C7.11060029,5.79094739 7.70056275,5.75989674 8.04211997,5.29413689 C8.35262654,4.89047836 8.32157588,4.42471852 8.29052522,4.30051589 C8.25947457,4.05211064 8.41472785,3.80370539 8.69418376,3.77265474 C8.94258901,3.74160408 9.19099426,3.89685736 9.22204491,4.14526261 C9.25309557,4.36261721 9.34624754,5.16993427 8.78733572,5.88409936 C8.1663226,6.66036577 7.23480291,6.72246708 7.04849897,6.72246708 Z M8.75628507,13.4915102 L5.52701682,13.4915102 C5.30966222,13.4915102 5.15440894,13.3362569 5.15440894,13.1189023 C5.15440894,12.0010787 6.05487797,11.1006096 7.14165094,11.1006096 C8.22842391,11.1006096 9.12889294,12.0010787 9.12889294,13.1189023 C9.12889294,13.3052062 8.97363966,13.4915102 8.75628507,13.4915102 Z M5.961726,12.7462944 L8.35262654,12.7462944 C8.19737326,12.2184333 7.73161341,11.8458254 7.1727016,11.8458254 C6.61378979,11.8458254 6.11697928,12.2184333 5.961726,12.7462944 Z" id="Combined-Shape" fill="#FFFFFF"></path>
                </g>
            </g>
        </g>
    </g>
</svg>