<?xml version="1.0" encoding="UTF-8"?>
<svg width="20px" height="20px" viewBox="0 0 20 20" version="1.1" xmlns="http://www.w3.org/2000/svg" xmlns:xlink="http://www.w3.org/1999/xlink">
    <title>toolbar-icon-home</title>
    <g id="icon-set最新整理" stroke="none" stroke-width="1" fill="none" fill-rule="evenodd">
        <g id="images/h5/icon-set/index-theme-icon" transform="translate(-35.000000, -89.000000)" fill-rule="nonzero">
            <g id="toolbar-icon-home" transform="translate(35.000000, 89.000000)">
                <g id="Group-2" transform="translate(2.000000, 1.000000)">
                    <path d="M12.7745092,18.0093806 L7.30959367,18.0093806 C5.63285823,18.0093806 4.29768001,16.6431518 4.29768001,14.997467 L4.29768001,14.0969979 C4.29768001,12.4202625 5.66390888,11.0850843 7.30959367,11.0850843 L12.7745092,11.0850843 C14.4512447,11.0850843 15.7864229,12.4513132 15.7864229,14.0969979 L15.7864229,14.997467 C15.7864229,16.6431518 14.420194,18.0093806 12.7745092,18.0093806 Z" id="Path" fill="#ED1F23"></path>
                    <path d="M14.3580927,7.82476538 L0.944209135,7.82476538 C0.540550603,7.82476538 0.23004404,7.60741079 0.0747907583,7.23480291 C-0.0804625231,6.86219504 0.0126894457,6.48958716 0.292145353,6.21013126 L2.71409654,4.06763597 C2.83829916,3.94343335 3.05565376,3.974484 3.17985638,4.09868663 C3.30405901,4.22288925 3.27300835,4.44024385 3.14880573,4.56444647 L0.726854541,6.70694176 C0.602651915,6.83114438 0.664753228,6.98639766 0.664753228,7.01744832 C0.664753228,7.04849897 0.757905197,7.20375226 0.944209135,7.20375226 L14.3891433,7.20375226 C14.5754473,7.20375226 14.6685993,7.04849897 14.6685993,7.01744832 C14.6996499,6.98639766 14.7307006,6.83114438 14.6064979,6.6758911 L7.89955614,0.776266407 C7.74430286,0.621013126 7.55799892,0.652063782 7.43379629,0.776266407 L5.35340232,2.60825513 C5.2291997,2.73245775 5.0118451,2.7014071 4.88764248,2.57720447 C4.76343985,2.45300185 4.79449051,2.23564725 4.91869313,2.11144463 L6.96803645,0.279455906 C7.15434039,0.0931519688 7.40274564,0 7.65115089,0 C7.89955614,0 8.14796139,0.0931519688 8.33426532,0.279455906 L15.0412071,6.1790806 C15.320663,6.45853651 15.413815,6.86219504 15.2585617,7.23480291 C15.1033084,7.57636013 14.7617512,7.82476538 14.3580927,7.82476538 Z M3.58351491,4.00553466 C3.49036295,4.00553466 3.39721098,3.974484 3.33510966,3.91238269 C3.21090704,3.78818007 3.2419577,3.57082547 3.36616032,3.44662285 L4.20452804,2.7014071 C4.32873066,2.57720447 4.54608526,2.60825513 4.67028788,2.73245775 C4.79449051,2.85666038 4.76343985,3.07401497 4.63923723,3.1982176 L3.80086951,3.94343335 C3.7387682,3.974484 3.67666688,4.00553466 3.58351491,4.00553466 Z M13.8612822,16.4568478 L9.51419026,16.4568478 C9.32788633,16.4568478 9.2036837,16.3015945 9.2036837,16.1463413 L9.2036837,12.7307691 L6.12966873,12.7307691 L6.12966873,16.1463413 C6.12966873,16.3326452 5.97441545,16.4568478 5.81916217,16.4568478 L1.47207029,16.4568478 C1.28576635,16.4568478 1.16156372,16.3015945 1.16156372,16.1463413 L1.16156372,8.38367719 C1.16156372,8.19737326 1.31681701,8.07317063 1.47207029,8.07317063 C1.62732357,8.07317063 1.78257685,8.22842391 1.78257685,8.38367719 L1.78257685,15.8358347 L5.47760495,15.8358347 L5.47760495,12.4202625 C5.47760495,12.2339586 5.63285823,12.1097559 5.78811151,12.1097559 L9.51419026,12.1097559 C9.7004942,12.1097559 9.82469683,12.2650092 9.82469683,12.4202625 L9.82469683,15.8358347 L13.519725,15.8358347 L13.519725,8.38367719 C13.519725,8.19737326 13.6749783,8.07317063 13.8302315,8.07317063 C13.9854848,8.07317063 14.1407381,8.22842391 14.1407381,8.38367719 L14.1407381,16.1463413 C14.1717888,16.3326452 14.0475861,16.4568478 13.8612822,16.4568478 Z M9.57629158,10.5572231 L5.85021282,10.5572231 C5.66390888,10.5572231 5.53970626,10.4019699 5.53970626,10.2467166 C5.53970626,10.0914633 5.69495954,9.93621001 5.85021282,9.93621001 L9.57629158,9.93621001 C9.76259551,9.93621001 9.88679814,10.0914633 9.88679814,10.2467166 C9.88679814,10.4019699 9.76259551,10.5572231 9.57629158,10.5572231 Z M7.27854301,4.25393991 C7.18539104,4.25393991 7.06118842,4.1918386 7.03013776,4.09868663 C6.93698579,3.94343335 6.9990871,3.75712941 7.12328973,3.6950281 L8.17901204,3.07401497 L7.12328973,2.32879922 C6.9990871,2.23564725 6.96803645,2.04934331 7.06118842,1.89409003 C7.15434039,1.76988741 7.34064432,1.73883675 7.49589761,1.83198872 L8.95527845,2.85666038 C9.04843042,2.91876169 9.07948108,3.01191366 9.07948108,3.10506563 C9.07948108,3.1982176 9.01737976,3.29136957 8.92422779,3.35347088 L7.46484695,4.22288925 C7.40274564,4.25393991 7.34064432,4.25393991 7.27854301,4.25393991 Z" id="Combined-Shape" fill="#FFFFFF"></path>
                </g>
            </g>
        </g>
    </g>
</svg>