<?xml version="1.0" encoding="UTF-8"?>
<svg width="20px" height="20px" viewBox="0 0 20 20" version="1.1" xmlns="http://www.w3.org/2000/svg" xmlns:xlink="http://www.w3.org/1999/xlink">
    <title>toolbar-icon-promotion</title>
    <g id="icon-set最新整理" stroke="none" stroke-width="1" fill="none" fill-rule="evenodd">
        <g id="images/h5/icon-set/index-theme-icon" transform="translate(-86.000000, -89.000000)" fill-rule="nonzero">
            <g id="toolbar-icon-promotion" transform="translate(86.000000, 89.000000)">
                <g id="Group-3" transform="translate(2.000000, 3.000000)">
                    <path d="M12.6178575,13.5211494 C10.3314001,13.5211494 8.44013293,11.6298821 8.44013293,9.34342475 C8.44013293,7.05696734 10.3314001,5.16570009 12.6178575,5.16570009 C14.904315,5.16570009 16.7955822,7.05696734 16.7955822,9.34342475 C16.8238101,11.6298821 14.9325428,13.5211494 12.6178575,13.5211494 Z" id="Path" fill="#ED1F23"></path>
                    <path d="M13.4929215,12.6460854 L2.54050824,12.6460854 C1.15734264,12.6460854 0,11.5169706 0,10.1055772 L0,8.29899359 C0,8.07317063 0.169367216,7.90380342 0.395190171,7.90380342 C1.12911477,7.90380342 1.69367216,7.31101816 1.69367216,6.60532143 C1.69367216,5.87139682 1.10088691,5.30683944 0.395190171,5.30683944 C0.169367216,5.30683944 0,5.13747222 0,4.91164927 L0,2.54050824 C0,1.15734264 1.12911477,0 2.54050824,0 L9.34342475,0 C9.56924771,0 9.73861492,0.169367216 9.73861492,0.395190171 C9.73861492,0.621013126 9.56924771,0.790380342 9.34342475,0.790380342 L2.54050824,0.790380342 C1.58076068,0.790380342 0.790380342,1.58076068 0.790380342,2.54050824 L0.790380342,4.57291483 C1.7501279,4.74228205 2.4840525,5.58911813 2.4840525,6.60532143 C2.4840525,7.62152472 1.7501279,8.4683608 0.790380342,8.63772802 L0.790380342,10.1055772 C0.790380342,11.0653247 1.58076068,11.8557051 2.54050824,11.8557051 L13.4929215,11.8557051 C14.4526691,11.8557051 15.2430494,11.0653247 15.2430494,10.1055772 L15.2430494,8.63772802 C14.2833018,8.4683608 13.5493772,7.62152472 13.5493772,6.60532143 C13.5493772,5.58911813 14.2833018,4.74228205 15.2430494,4.57291483 L15.2430494,2.54050824 C15.2430494,1.58076068 14.4526691,0.790380342 13.4929215,0.790380342 L12.9848198,0.790380342 C12.7589969,0.790380342 12.5896297,0.621013126 12.5896297,0.395190171 C12.5896297,0.169367216 12.7589969,0 12.9848198,0 L13.4929215,0 C14.8760871,0 16.0334297,1.12911477 16.0334297,2.54050824 L16.0334297,4.91164927 C16.0334297,5.13747222 15.8640625,5.30683944 15.6382396,5.30683944 C14.904315,5.30683944 14.3397576,5.89962469 14.3397576,6.60532143 C14.3397576,7.33924603 14.9325428,7.90380342 15.6382396,7.90380342 C15.8640625,7.90380342 16.0334297,8.07317063 16.0334297,8.29899359 L16.0334297,10.1055772 C16.0334297,11.4887428 14.8760871,12.6460854 13.4929215,12.6460854 Z M11.6016543,0.790380342 L10.5572231,0.790380342 C10.3314001,0.790380342 10.1620329,0.621013126 10.1620329,0.395190171 C10.1620329,0.169367216 10.3314001,-5.55111512e-17 10.5572231,-5.55111512e-17 L11.6016543,-5.55111512e-17 C11.8274772,-5.55111512e-17 11.9968444,0.169367216 11.9968444,0.395190171 C11.9968444,0.621013126 11.7992493,0.790380342 11.6016543,0.790380342 Z M5.47620665,9.82329853 C5.2503837,9.82329853 5.08101648,9.65393132 5.08101648,9.42810836 L5.08101648,2.65341972 C5.08101648,2.42759676 5.2503837,2.25822955 5.47620665,2.25822955 C5.70202961,2.25822955 5.87139682,2.42759676 5.87139682,2.65341972 L5.87139682,9.42810836 C5.87139682,9.65393132 5.70202961,9.82329853 5.47620665,9.82329853 Z" id="Combined-Shape" fill="#FFFFFF"></path>
                </g>
            </g>
        </g>
    </g>
</svg>