<?xml version="1.0" encoding="UTF-8"?>
<svg width="20px" height="20px" viewBox="0 0 20 20" version="1.1" xmlns="http://www.w3.org/2000/svg" xmlns:xlink="http://www.w3.org/1999/xlink">
    <title>toolbar-icon-deposit</title>
    <g id="icon-set最新整理" stroke="none" stroke-width="1" fill="none" fill-rule="evenodd">
        <g id="images/h5/icon-set/index-theme-icon" transform="translate(-139.000000, -89.000000)" fill-rule="nonzero">
            <g id="toolbar-icon-deposit" transform="translate(139.000000, 89.000000)">
                <g id="Group-4" transform="translate(2.000000, 3.000000)">
                    <path d="M12.2650093,13.6622888 L6.80009372,13.6622888 C5.12335828,13.6622888 3.78818006,12.2960599 3.78818006,10.6503751 L3.78818006,9.74990607 C3.78818006,8.07317063 5.15440894,6.73799241 6.80009372,6.73799241 L12.2650093,6.73799241 C13.9417447,6.73799241 15.2769229,8.10422129 15.2769229,9.74990607 L15.2769229,10.6503751 C15.2769229,12.2960599 13.910694,13.6622888 12.2650093,13.6622888 Z" id="Path" fill="#ED1F23"></path>
                    <path d="M2.79455906,2.57720447 L2.79455906,2.79455906 C2.79455906,2.980863 2.63930578,3.10506563 2.4840525,3.10506563 C2.29774856,3.10506563 2.17354594,2.980863 2.17354594,2.79455906 L2.17354594,2.57720447 L1.92514069,2.57720447 C1.73883675,2.57720447 1.61463412,2.45300185 1.61463412,2.26669791 C1.61463412,2.08039397 1.73883675,1.95619135 1.92514069,1.95619135 L2.17354594,1.95619135 L2.17354594,1.7077861 C2.17354594,1.52148216 2.29774856,1.39727953 2.4840525,1.39727953 C2.67035644,1.39727953 2.79455906,1.52148216 2.79455906,1.7077861 L2.79455906,1.95619135 L3.01191366,1.95619135 C3.19821759,1.95619135 3.32242022,2.08039397 3.32242022,2.26669791 C3.32242022,2.45300185 3.19821759,2.57720447 3.01191366,2.57720447 L2.79455906,2.57720447 Z M13.0412757,4.62654779 L0.869418376,4.62654779 L0.869418376,5.21651025 C0.869418376,5.4649155 0.683114438,5.65121944 0.434709188,5.65121944 C0.186303938,5.65121944 0,5.4649155 0,5.21651025 L0,1.83198872 C0,0.838367719 0.807317063,0 1.83198872,0 L12.0787053,0 C13.0723263,0 13.910694,0.807317063 13.910694,1.83198872 L13.910694,10.5572231 C13.8796434,11.5818948 13.0723263,12.3892119 12.0787053,12.3892119 L1.83198872,12.3892119 C0.83836772,12.3892119 0,11.5818948 0,10.5572231 L0,8.72523441 C0,8.47682916 0.186303938,8.29052523 0.434709188,8.29052523 C0.683114438,8.29052523 0.869418376,8.47682916 0.869418376,8.72523441 L0.869418376,10.5572231 C0.869418376,11.0850843 1.30412756,11.5197935 1.83198872,11.5197935 L12.0787053,11.5197935 C12.6065665,11.5197935 13.0412757,11.0850843 13.0412757,10.5572231 L13.0412757,4.62654779 Z M13.0412757,3.75712941 L13.0412757,1.83198872 C13.0412757,1.30412756 12.6065665,0.869418376 12.0787053,0.869418376 L1.83198872,0.869418376 C1.30412756,0.869418376 0.869418376,1.30412756 0.869418376,1.83198872 L0.869418376,3.75712941 L13.0412757,3.75712941 Z M0.434709188,7.91791735 C0.186303938,7.91791735 -1.38777878e-17,7.73161341 -1.38777878e-17,7.48320816 L-1.38777878e-17,6.42748585 C-1.38777878e-17,6.1790806 0.186303938,5.99277666 0.434709188,5.99277666 C0.683114438,5.99277666 0.869418376,6.1790806 0.869418376,6.42748585 L0.869418376,7.48320816 C0.869418376,7.73161341 0.652063782,7.91791735 0.434709188,7.91791735 Z M11.0850843,9.90515935 L6.42748585,9.90515935 C6.1790806,9.90515935 5.99277666,9.71885541 5.99277666,9.47045017 C5.99277666,9.22204491 6.1790806,9.03574098 6.42748585,9.03574098 L11.0850843,9.03574098 C11.3334896,9.03574098 11.5197935,9.22204491 11.5197935,9.47045017 C11.5197935,9.71885541 11.3334896,9.90515935 11.0850843,9.90515935 Z" id="Combined-Shape" fill="#FFFFFF"></path>
                </g>
            </g>
        </g>
    </g>
</svg>