<?xml version="1.0" encoding="UTF-8"?>
<svg viewBox="0 0 30 30" version="1.1" xmlns="http://www.w3.org/2000/svg" xmlns:xlink="http://www.w3.org/1999/xlink">
    <title>leftmenu/sports/solid/icon-insports</title>
    <g id="leftmenu/sports/solid/icon-insports" stroke="none" stroke-width="1" fill="none" fill-rule="evenodd">
        <path d="M29.7479861,7.02653558 C27.7584024,7.02653558 27.081944,7 25.0923604,7.03980337 C24.6413881,7.03980337 24.1771519,7.19901687 23.7527074,7.37149816 C23.076249,7.65012177 22.6915961,8.24717238 22.2804155,8.8309552 C21.0336098,10.622107 18.9909706,13.6338957 17.7309009,15.4117797 C17.4390953,15.8230812 17.1472897,16.2343828 16.8024286,16.6987555 C16.7228452,16.5528098 16.6697897,16.473203 16.629998,16.3935963 C15.5954145,14.2840174 13.9772198,10.9272662 12.9293724,8.8309552 C12.1998584,7.35823037 10.5949276,6.6948408 9.04305239,7.19901687 C7.5707605,7.67665736 6.7086076,9.20245336 6.94735763,10.8078561 C7.04020487,11.4181745 7.06673265,12.0417607 7.02694098,12.6653469 C6.96062152,13.7267702 6.53617702,14.6555156 5.72707967,15.3719763 C4.89145455,16.1282404 3.87013495,16.4864708 2.769232,16.6589521 C0.899023387,16.9508435 -0.294726793,18.6225852 0.0633982612,20.4535404 C0.394995533,22.1783533 2.01319022,23.2795799 3.71096826,22.9876885 C5.43527407,22.6957971 6.5627048,21.1036622 6.32395476,19.3390459 C6.25763531,18.8614054 6.21784363,18.383765 6.21784363,17.9061245 C6.21784363,16.4599352 6.7086076,15.2392984 7.91562167,14.3636242 C9.0297885,13.5675567 10.5286082,13.9125193 11.1254833,15.1066205 C12.133539,17.1365926 13.1150669,19.1798324 14.1363865,21.2098045 C14.680206,22.2844956 15.5688867,22.894814 16.7759008,22.9744207 C17.9829149,23.0540275 18.9511789,22.5498514 19.6409012,21.5547671 C19.786804,21.3557502 19.906179,21.1434655 20.0520818,20.9444487 C22.1875683,17.9857312 24.3229221,15.013746 26.4451446,12.0550285 C27.5594441,10.5026969 28.6602144,8.93709753 29.7611173,7.37149816 C29.8274368,7.26535583 29.9070201,7.1592135 30,7.02653558 C29.880625,7.02653558 29.8274368,7 29.7745139,7 L29.7479861,7.02653558 Z" id="Fill-1" fill="#000000"></path>
    </g>
</svg>