<?xml version="1.0" encoding="UTF-8"?>
<svg width="30px" height="30px" viewBox="0 0 30 30" version="1.1" xmlns="http://www.w3.org/2000/svg" xmlns:xlink="http://www.w3.org/1999/xlink">
    <title>leftmenu/sports/solid/icon-bti</title>
    <g id="leftmenu/sports/solid/icon-bti" stroke="none" stroke-width="1" fill="none" fill-rule="evenodd">
        <g id="Group-2" transform="translate(1, 1)" fill="#000000">
            <path d="M14.000137,0 C21.7321815,0 28,6.26781853 28,13.999863 L27.9965781,14.3125104 C27.8303321,21.9001708 21.6276944,28 14.000137,28 L13.6874896,27.9965779 C6.09982922,27.8303248 0,21.6274204 0,13.999863 L0.0034220885,13.6872158 C0.169675244,6.09956263 6.37257956,0 14.000137,0 Z M13.8996703,22.7096469 C13.491881,22.7096469 13.1611632,23.0400785 13.1611632,23.4478696 C13.1611632,23.8559483 13.491881,24.1863799 13.8996703,24.1863799 C14.3074597,24.1863799 14.6381775,23.8559483 14.6381775,23.4478696 C14.6381775,23.0400785 14.3074597,22.7096469 13.8996703,22.7096469 Z M10.7929365,22.9419268 C10.6873944,23.335914 10.9211975,23.7405417 11.315183,23.8460843 C11.7091685,23.9516268 12.114082,23.7181103 12.2196241,23.3241231 C12.3251662,22.9301359 12.0913632,22.5252206 11.6973777,22.4196781 C11.3033922,22.3141355 10.8984786,22.5479396 10.7929365,22.9419268 Z M16.1019055,22.4196781 C15.70792,22.5252206 15.4741169,22.9301359 15.5799466,23.3241231 C15.6854887,23.7181103 16.0901147,23.9516268 16.4841002,23.8460843 C16.8780857,23.7405417 17.1118887,23.335914 17.0063466,22.9416392 C16.9008045,22.5479396 16.495891,22.3141355 16.1019055,22.4196781 Z M8.63662801,21.8399705 C8.43273333,22.193121 8.5535172,22.6446246 8.90666625,22.8485202 C9.26010287,23.0524157 9.7116045,22.9316314 9.91549918,22.5784808 C10.1193939,22.2253302 9.99832241,21.7735391 9.64517337,21.5696435 C9.29202432,21.3657479 8.84052269,21.4868199 8.63662801,21.8399705 Z M18.1540523,21.5697298 C17.8009032,21.7736253 17.6798318,22.2251289 17.8837265,22.5782795 C18.0876211,22.93143 18.5394103,23.052502 18.8925594,22.8486065 C19.2457084,22.6447109 19.3667799,22.1929197 19.1628852,21.8397692 C18.9589905,21.4866186 18.5072013,21.3658342 18.1540523,21.5697298 Z M6.838645,20.2174622 C6.5502016,20.5059068 6.5502016,20.9732274 6.838645,21.261672 C7.12708839,21.5501167 7.59469454,21.5501167 7.88285036,21.261672 C8.17129375,20.9732274 8.17129375,20.5059068 7.88285036,20.2174622 C7.59469454,19.9290175 7.12708839,19.9290175 6.838645,20.2174622 Z M19.9163465,20.2174622 C19.6279031,20.5056192 19.6279031,20.9732274 19.9163465,21.261672 C20.2047899,21.5501167 20.6721085,21.5501167 20.9605519,21.261672 C21.2489953,20.9732274 21.2489953,20.5056192 20.9605519,20.2174622 C20.6721085,19.9290175 20.2047899,19.9290175 19.9163465,20.2174622 Z M13.8996703,19.5923166 C13.491881,19.5923166 13.1611632,19.9230358 13.1611632,20.3308269 C13.1611632,20.7386181 13.491881,21.0690497 13.8996703,21.0690497 C14.3074597,21.0690497 14.6381775,20.7386181 14.6381775,20.3308269 C14.6381775,19.9230358 14.3074597,19.5923166 13.8996703,19.5923166 Z M10.8492448,19.5772473 C10.6933761,19.9539796 10.8722513,20.3859276 11.2489819,20.541797 C11.6257126,20.697954 12.0576587,20.5190781 12.213815,20.1423458 C12.3696837,19.7656135 12.1908086,19.3336655 11.8140779,19.1775085 C11.4373473,19.0216391 11.0054011,19.2005151 10.8492448,19.5772473 Z M15.985234,19.1773935 C15.6085033,19.3335504 15.4296282,19.7654985 15.5854969,20.1422307 C15.7416532,20.518963 16.1735993,20.697839 16.55033,20.5419696 C16.9270606,20.3858126 17.1059358,19.9538646 16.9500671,19.5771323 C16.7939108,19.2004 16.3619647,19.0215241 15.985234,19.1773935 Z M21.2686658,18.4552178 C21.0644835,18.8083684 21.185555,19.259872 21.538704,19.4637675 C21.8918531,19.6676631 22.3436423,19.5468787 22.547537,19.1934405 C22.7514317,18.84029 22.6303602,18.3887864 22.2772112,18.1848908 C21.9240621,17.9809953 21.4725605,18.1020672 21.2686658,18.4552178 Z M5.52215828,18.1848621 C5.16872165,18.3887576 5.04793778,18.8405488 5.25183246,19.1936994 C5.45572714,19.5468499 5.90722877,19.6679219 6.26037782,19.4637388 C6.61352686,19.2598432 6.73459832,18.8083396 6.53070363,18.4551891 C6.32680895,18.1020385 5.87530732,17.9809665 5.52215828,18.1848621 Z M9.00176917,17.9961508 C8.71332577,18.2845955 8.71332577,18.7519161 9.00176917,19.0403607 C9.29021257,19.3288053 9.75781871,19.3288053 10.0459745,19.0403607 C10.3344179,18.7519161 10.3344179,18.2845955 10.0459745,17.9961508 C9.75781871,17.7077062 9.29021257,17.7077062 9.00176917,17.9961508 Z M17.7533374,17.9962659 C17.464894,18.2847105 17.464894,18.7520311 17.7533374,19.0404757 C18.0414932,19.3286328 18.5090993,19.3286328 18.7975427,19.0404757 C19.0859861,18.7520311 19.0859861,18.2847105 18.7975427,17.9962659 C18.5090993,17.7078212 18.0414932,17.7078212 17.7533374,17.9962659 Z M13.8996703,16.5461629 C13.491881,16.5461629 13.1611632,16.8765945 13.1611632,17.2843856 C13.1611632,17.6921768 13.491881,18.0228959 13.8996703,18.0228959 C14.3074597,18.0228959 14.6381775,17.6921768 14.6381775,17.2843856 C14.6381775,16.8765945 14.3074597,16.5461629 13.8996703,16.5461629 Z M4.77623157,15.8807559 C4.38253366,15.9862985 4.14873058,16.3912138 4.25427268,16.785201 C4.35981478,17.1791882 4.76472835,17.4129923 5.15842626,17.3074497 C5.55241176,17.2019071 5.78621483,16.7969918 5.68067273,16.4030046 C5.57513063,16.0090174 5.17021707,15.7752134 4.77623157,15.8807559 Z M22.1185529,16.4028033 C22.0130108,16.7970781 22.2468139,17.2017058 22.6407994,17.3072484 C23.0347849,17.412791 23.4394109,17.1792745 23.544953,16.7852873 C23.6507826,16.3913001 23.4169796,15.9863847 23.0229941,15.8808422 C22.6290086,15.7752996 22.224095,16.0091037 22.1185529,16.4028033 Z M18.93469,16.2282124 C18.7785337,16.6049446 18.9574088,17.0368927 19.3341395,17.192762 C19.7108701,17.348919 20.1431039,17.1700431 20.2989726,16.7933108 C20.4551289,16.4162909 20.2762537,15.9843429 19.8995231,15.8284735 C19.5225048,15.6726041 19.0905587,15.8514801 18.93469,16.2282124 Z M7.89978886,15.8283872 C7.5230582,15.9845442 7.34418303,16.4164922 7.50033933,16.7932245 C7.65620804,17.1699568 8.08815419,17.3488327 8.46488484,17.1929633 C8.84190308,17.0368064 9.02077825,16.6048584 8.86462195,16.2281261 C8.70846566,15.8513938 8.27651951,15.6725179 7.89978886,15.8283872 Z M15.6152327,15.8356056 C15.3267893,16.1240502 15.3267893,16.5913708 15.6152327,16.8798154 C15.9036761,17.1682601 16.3709947,17.1682601 16.6594381,16.8798154 C16.9478815,16.5913708 16.9478815,16.1240502 16.6594381,15.8356056 C16.3709947,15.5471609 15.9036761,15.5471609 15.6152327,15.8356056 Z M11.1399026,15.8356056 C10.8514592,16.1240502 10.8514592,16.5913708 11.1399026,16.8798154 C11.428346,17.1682601 11.8956645,17.1682601 12.1841079,16.8798154 C12.4725513,16.5913708 12.4725513,16.1240502 12.1841079,15.8356056 C11.8956645,15.5471609 11.428346,15.5471609 11.1399026,15.8356056 Z M23.1469126,13.4623935 C22.7391232,13.4623935 22.4084054,13.7928251 22.4084054,14.2006162 C22.4084054,14.6084073 22.7391232,14.9391265 23.1469126,14.9391265 C23.5547019,14.9391265 23.8854197,14.6084073 23.8854197,14.2006162 C23.8854197,13.7928251 23.5547019,13.4623935 23.1469126,13.4623935 Z M4.65237058,13.4622497 C4.24458122,13.4622497 3.91386346,13.7929689 3.91386346,14.20076 C3.91386346,14.6085511 4.24458122,14.9389827 4.65237058,14.9389827 C5.06015995,14.9389827 5.39087771,14.6085511 5.39087771,14.20076 C5.39087771,13.7929689 5.06015995,13.4622497 4.65237058,13.4622497 Z M13.8996703,13.4041006 C13.491881,13.4041006 13.1611632,13.7345322 13.1611632,14.1426109 C13.1611632,14.5504021 13.491881,14.8808337 13.8996703,14.8808337 C14.3074597,14.8808337 14.6381775,14.5504021 14.6381775,14.1426109 C14.6381775,13.7345322 14.3074597,13.4041006 13.8996703,13.4041006 Z M7.71142353,13.4041006 C7.30363416,13.4041006 6.97291641,13.7345322 6.97291641,14.1426109 C6.97291641,14.5504021 7.30363416,14.8808337 7.71142353,14.8808337 C8.1192129,14.8808337 8.44993065,14.5504021 8.44993065,14.1426109 C8.44993065,13.7345322 8.1192129,13.4041006 7.71142353,13.4041006 Z M20.0878596,13.4041006 C19.6800703,13.4041006 19.3493525,13.7345322 19.3493525,14.1426109 C19.3493525,14.5504021 19.6800703,14.8808337 20.0878596,14.8808337 C20.495649,14.8808337 20.8263667,14.5504021 20.8263667,14.1426109 C20.8263667,13.7345322 20.495649,13.4041006 20.0878596,13.4041006 Z M10.7351616,13.3816405 C10.3273722,13.3816405 9.99665444,13.7120721 9.99665444,14.1198632 C9.99665444,14.5276543 10.3273722,14.8583735 10.7351616,14.8583735 C11.1429509,14.8583735 11.4736687,14.5276543 11.4736687,14.1198632 C11.4736687,13.7120721 11.1429509,13.3816405 10.7351616,13.3816405 Z M17.0642079,13.3816405 C16.6564185,13.3816405 16.3257007,13.7120721 16.3257007,14.1198632 C16.3257007,14.5279419 16.6564185,14.8583735 17.0642079,14.8583735 C17.4719972,14.8583735 17.802715,14.5279419 17.802715,14.1198632 C17.802715,13.7120721 17.4719972,13.3816405 17.0642079,13.3816405 Z M11.1398738,11.3602848 C10.8514304,11.6484419 10.8514304,12.1160501 11.1398738,12.4044947 C11.4283172,12.6929393 11.8956358,12.6929393 12.1840792,12.4044947 C12.4725226,12.1160501 12.4725226,11.6484419 12.1840792,11.3602848 C11.8956358,11.0718402 11.4283172,11.0718402 11.1398738,11.3602848 Z M15.6152327,11.3602848 C15.3267893,11.6484419 15.3267893,12.1160501 15.6152327,12.4044947 C15.9036761,12.6929393 16.3709947,12.6929393 16.6594381,12.4044947 C16.9478815,12.1160501 16.9478815,11.6484419 16.6594381,11.3602848 C16.3709947,11.0718402 15.9036761,11.0718402 15.6152327,11.3602848 Z M4.25415765,11.6162902 C4.14861555,12.0102774 4.38241862,12.4149052 4.77640412,12.5204477 C5.17038962,12.6262779 5.5750156,12.3924738 5.6805577,11.9984866 C5.78638738,11.6044994 5.55258431,11.1995841 5.15859881,11.0940415 C4.76461331,10.9884989 4.35969975,11.222303 4.25415765,11.6162902 Z M22.6407994,11.0941853 C22.2468139,11.1997279 22.0130108,11.6043556 22.1185529,11.9986304 C22.224095,12.39233 22.6290086,12.6261341 23.0229941,12.5205915 C23.4169796,12.415049 23.6507826,12.0101336 23.544953,11.6161464 C23.4394109,11.2221592 23.0347849,10.9886427 22.6407994,11.0941853 Z M19.334312,11.0922585 C18.9575814,11.2481279 18.7787062,11.6800759 18.9345749,12.0568082 C19.0907312,12.4335405 19.5226774,12.612704 19.899408,12.456547 C20.2761387,12.3006776 20.4550138,11.8687296 20.2988576,11.4919973 C20.1429888,11.1149775 19.7110427,10.9361015 19.334312,11.0922585 Z M7.50022429,11.4919686 C7.34435558,11.8687009 7.52323075,12.3006489 7.8999614,12.4565183 C8.27669206,12.6126752 8.70863821,12.4337993 8.8647945,12.0567794 C9.02066322,11.6800471 8.84178805,11.2480991 8.46505739,11.0922297 C8.08832673,10.9360728 7.65638059,11.1152363 7.50022429,11.4919686 Z M13.8996703,10.217118 C13.491881,10.217118 13.1611632,10.5475496 13.1611632,10.9553408 C13.1611632,11.3631319 13.491881,11.6938511 13.8996703,11.6938511 C14.3074597,11.6938511 14.6381775,11.3631319 14.6381775,10.9553408 C14.6381775,10.5475496 14.3074597,10.217118 13.8996703,10.217118 Z M17.7533374,9.24471736 C17.464894,9.53287442 17.464894,10.0004826 17.7533374,10.2889272 C18.0414932,10.5773719 18.5090993,10.5773719 18.7975427,10.2889272 C19.0859861,10.0004826 19.0859861,9.53287442 18.7975427,9.24471736 C18.5090993,8.95627271 18.0414932,8.95627271 17.7533374,9.24471736 Z M9.00185544,9.24471736 C8.71341205,9.53287442 8.71341205,10.0004826 9.00185544,10.2889272 C9.29029884,10.5773719 9.7576174,10.5773719 10.0460608,10.2889272 C10.3345042,10.0004826 10.3345042,9.53287442 10.0460608,9.24471736 C9.7576174,8.95627271 9.29029884,8.95627271 9.00185544,9.24471736 Z M21.538704,8.93757989 C21.185555,9.14147546 21.0647711,9.59297903 21.2686658,9.9461296 C21.4725605,10.2992802 21.9240621,10.4203522 22.2772112,10.2164566 C22.6303602,10.012561 22.7514317,9.56105744 22.547537,9.20790687 C22.3436423,8.85446872 21.8921407,8.73368432 21.538704,8.93757989 Z M5.25163115,9.20793563 C5.04773647,9.5610862 5.16880792,10.0125898 5.52195697,10.2164853 C5.87510601,10.4203809 6.32689522,10.2993089 6.53078991,9.94615836 C6.73468459,9.59300779 6.61361314,9.14150421 6.26046409,8.93760865 C5.90731505,8.73371308 5.45552584,8.85449748 5.25163115,9.20793563 Z M11.2489819,7.74319475 C10.8722513,7.89906414 10.6933761,8.33101215 10.8492448,8.70774444 C11.0054011,9.0847643 11.4373473,9.26364024 11.8140779,9.10748327 C12.1908086,8.95161389 12.3696837,8.51966588 12.213815,8.14293359 C12.0576587,7.76591372 11.6257126,7.58703778 11.2489819,7.74319475 Z M15.5854681,8.14296235 C15.4295994,8.51969463 15.6084746,8.95164264 15.9852052,9.10751203 C16.3619359,9.263669 16.793882,9.08450548 16.9500383,8.7077732 C17.1059071,8.33104091 16.9270319,7.8990929 16.5503012,7.74322351 C16.1735706,7.58706654 15.7416244,7.76594248 15.5854681,8.14296235 Z M13.8996703,7.21591335 C13.491881,7.21591335 13.1611632,7.54634495 13.1611632,7.95413608 C13.1611632,8.36221479 13.491881,8.69264639 13.8996703,8.69264639 C14.3074597,8.69264639 14.6381775,8.36221479 14.6381775,7.95413608 C14.6381775,7.54634495 14.3074597,7.21591335 13.8996703,7.21591335 Z M19.9164328,7.13979042 C19.6279894,7.42794748 19.6279894,7.89555564 19.9164328,8.18400029 C20.2045886,8.47244493 20.6721948,8.47244493 20.9606382,8.18400029 C21.2490816,7.89555564 21.2490816,7.42794748 20.9606382,7.13979042 C20.6721948,6.85134577 20.2045886,6.85134577 19.9164328,7.13979042 Z M6.83876003,7.13976166 C6.55031663,7.4282063 6.55031663,7.89581447 6.83876003,8.18397153 C7.12720343,8.47241617 7.59452199,8.47241617 7.88296539,8.18397153 C8.17140878,7.89581447 8.17140878,7.4282063 7.88296539,7.13976166 C7.59452199,6.85131702 7.12720343,6.85131702 6.83876003,7.13976166 Z M17.8838127,5.82315422 C17.679918,6.17630479 17.8009895,6.62780837 18.1541385,6.83170393 C18.5072876,7.0355995 18.9587892,6.9148151 19.1626839,6.56166453 C19.3665786,6.20851396 19.2457947,5.7567228 18.8926457,5.55282723 C18.539209,5.34893167 18.0877074,5.47000365 17.8838127,5.82315422 Z M8.90672376,5.55282723 C8.55357472,5.7567228 8.43250326,6.20851396 8.63639795,6.56166453 C8.84029263,6.9148151 9.29208184,7.0355995 9.64523088,6.83170393 C9.99837993,6.62780837 10.1194514,6.17630479 9.9155567,5.82315422 C9.71166201,5.47000365 9.25987281,5.34893167 8.90672376,5.55282723 Z M15.5799466,5.07731057 C15.4741169,5.47129777 15.70792,5.87621308 16.1019055,5.98175563 C16.495891,6.08729819 16.9008045,5.85349411 17.0063466,5.45979449 C17.1118887,5.06551971 16.8780857,4.66089198 16.4841002,4.55534942 C16.0901147,4.44980687 15.6854887,4.68332337 15.5799466,5.07731057 Z M11.3152117,4.55534942 C10.9212262,4.66089198 10.6874232,5.06551971 10.7929653,5.45979449 C10.8985074,5.85349411 11.3034209,6.08729819 11.6974064,5.98175563 C12.0913919,5.87621308 12.325195,5.47129777 12.2193653,5.07731057 C12.1138232,4.68332337 11.7091972,4.44951928 11.3152117,4.55534942 Z M13.8996703,4.21505376 C13.491881,4.21505376 13.1611632,4.54548536 13.1611632,4.95356408 C13.1611632,5.36135521 13.491881,5.69178681 13.8996703,5.69178681 C14.3074597,5.69178681 14.6381775,5.36135521 14.6381775,4.95356408 C14.6381775,4.54548536 14.3074597,4.21505376 13.8996703,4.21505376 Z" id="Combined-Shape"></path>
        </g>
    </g>
</svg>