<?xml version="1.0" encoding="UTF-8"?>
<svg viewBox="0 0 120 120" version="1.1" xmlns="http://www.w3.org/2000/svg" xmlns:xlink="http://www.w3.org/1999/xlink">
  <title>h5/sports-icon/black/icon-powereleven</title>
  <g id="h5/sports-icon/black/icon-powereleven" stroke="none" stroke-width="1" fill="none" fill-rule="evenodd">
    <path d="M21.169023,10 L21.2055513,10.0636372 C21.5434805,10.6457394 24.1838656,15.0538067 27.3613487,16.3228399 L27.3417607,16.3028116 C27.1500368,16.1024625 25.6138893,14.3980241 25.5384956,11.1453449 C28.1676361,14.4046971 33.3520134,14.3848378 38.953481,14.2706024 L39.719702,14.2547389 C39.8477694,14.2520972 39.9760021,14.2494816 40.1043749,14.2469293 L40.8928974,14.2323963 C41.5890362,14.2208501 42.2877687,14.2133856 42.9851357,14.2159002 L43.6819009,14.2219595 C49.5980435,14.3054512 55.32018,15.2519577 58.4168676,20.6831882 C58.4168676,20.6831882 59.1875591,17.628935 58.1555026,14.3804421 C58.1555026,14.3804421 61.2248655,17.1399866 61.0171138,21.7213664 C61.0171138,21.7213664 62.8309218,20.7558559 65.9379165,21.1923392 C88.8376264,18.01726 103.75,22.1891249 103.75,22.1891249 L57.2903691,110 L38.5559446,74.3764545 C38.5779853,74.627837 38.6000421,74.7689216 38.6000421,74.7689216 C37.0271217,72.8604074 36.2495893,70.5067246 36.0241498,69.7354477 L35.9842031,69.5951335 C35.9630873,69.5187229 35.9528841,69.477562 35.9528841,69.477562 C34.8001976,74.9564635 38.1711355,80 38.1711355,80 C28.3665985,78.1513731 18.0594501,70.2813128 16.25,59.8794374 C16.25,59.8794374 16.2761999,59.7230147 16.3392824,59.4337769 L16.3816432,59.2444852 C16.7103467,57.8105232 17.7273453,54.1169904 20.2240881,49.912927 C20.3045081,48.0509042 21.0617963,44.1795044 22.4088311,42.1835231 C23.7558525,40.1875419 25.9204905,38.1446752 26.0009105,36.9658406 C26.0746289,35.8673811 24.5935607,35.3449431 23.3269459,33.6034829 C21.2561446,30.4889484 24.2517758,27.7427997 26.7850054,27.6021433 L28.1320402,25.2310784 C28.1320402,25.2310784 18.4749533,21.5338245 21.169023,10 Z M78.75,45 C78.7435659,45 77.0868208,46.933787 74.5485014,50.1044318 L74.1048697,50.659957 C69.3590984,56.6174608 61.9005433,66.4533525 56.25,76.103141 C56.25,76.103141 58.9780526,81.9608879 60.7667286,90 C60.7667286,90 61.1592079,78.2845062 64.2025307,71.4957717 C65.844062,67.8288446 67.1900388,65.1160792 68.7049957,62.3342773 L69.0446231,61.7145468 C71.3298673,57.5698893 74.0615092,53.1073628 78.75,45 Z M81.7050347,25.0683288 C77.0077241,25.2235801 72.3312203,25.6546367 67.6940678,26.3394606 C69.2459796,28.8986647 72.2349968,33.7169951 75.5999384,32.9872739 C75.5999384,32.9872739 72.8924655,36.5572672 69.4210026,37.4949766 C69.4210026,37.4949766 72.091867,38.1409458 74.7642322,39.040903 L75.2646666,39.2125257 C75.5974323,39.3287975 75.9276146,39.4486551 76.25,39.5713329 C68.0337578,47.5217683 59.5494491,62.1835231 52.0167768,74.0187542 C50.4236749,73.1551451 48.5177552,72.4122053 46.6622601,71.8011221 L56.291,89.874 L56.2582546,89.7677666 L56.0380382,89.0612521 C55.7381227,88.1064074 55.433064,87.1643662 55.1295655,86.2486892 L54.9023388,85.5670867 C53.0129668,79.9317909 51.25,75.4587766 51.25,75.4587766 C60.4929295,60.5198803 72.7952964,47.6742507 76.7109805,43.7384707 L77.1021624,43.3469415 C77.6578552,42.7932181 77.9631664,42.5 77.9631664,42.5 L85.587,45.424 L96.25,25.5294457 C91.4280996,25.0288045 86.5269351,24.9036442 81.7050347,25.0683288 Z M27.6567764,30.2614711 C25.0377121,31.0039823 23.8962156,33.1520803 26.1021729,34.3583448 C28.5223436,35.6836482 31.785907,34.4033794 34.2060777,35.6064461 C36.9746063,36.9832176 36.3756751,39.2092127 36.3756751,39.2092127 C35.8928633,37.9932789 34.8661242,37.4850315 34.8661242,37.4850315 C34.7986257,39.3546547 33.6886137,40.1820209 33.007498,40.5151794 C32.8202743,40.1798296 32.6714508,40.001626 32.6714508,40 C32.6714508,40 32.6788877,40.0386494 32.6897732,40.1119513 L32.7042358,40.216291 C32.7176798,40.3200548 32.7331039,40.4591351 32.7461034,40.6291178 C32.6380329,40.6707341 32.5569539,40.6948783 32.5149091,40.7063503 L32.4826228,40.7146544 C32.5741466,40.8252422 32.6700231,40.926993 32.7675668,41.020333 C32.7768468,41.2640729 32.7783659,41.5474155 32.7654697,41.8617575 C31.145055,41.4201539 29.9799861,39.7583538 27.2939236,40.8883592 L28.0273087,42.142894 C28.0273087,42.142894 25.1182146,42.2393967 23.9814678,43.5453996 C22.8447332,44.8514025 22.7775062,47.3926396 22.7775062,47.3926396 C22.7775062,47.3926396 23.4558752,46.9808949 24.2137064,46.2989426 C24.9715376,45.6169904 26.8416695,44.1758837 27.4711583,44.7742003 C28.1006472,45.3789504 28.0884241,46.4404799 28.0884241,46.4404799 C27.7353128,45.6227091 27.0634958,45.4708464 26.9185626,45.4471951 L26.8905618,45.4432856 C26.8905618,45.4432856 26.7927772,46.8393576 25.313784,48.389834 C24.0897896,49.6676625 22.4262958,50.5665488 21.8890624,50.8385242 L21.7791239,50.8933139 C21.7367926,50.9140349 21.7140979,50.9246376 21.7140979,50.9246376 C19.5383889,55.7562049 18.9822386,58.9343598 18.9822386,58.9343598 L24.710793,59.1400495 C24.7689365,59.2888612 24.8399572,59.4655199 24.9232382,59.664594 L18.75,60.3947669 L18.7507286,60.4113822 C18.7620995,60.6264193 18.939905,62.9099562 21.4513016,66.165627 C24.0914756,69.5818217 27.4772699,70 27.4772699,70 C26.6477861,68.4666057 26.3080396,66.6776458 26.2155433,66.1063455 L26.1974299,65.9897409 C26.1908084,65.9449751 26.1877345,65.9211535 26.1877345,65.9211535 C27.1533581,66.2299621 29.5918634,66.7639436 32.5987421,64.4607464 C32.6333844,64.4342112 32.6680671,64.4071373 32.702785,64.3795404 C33.2949373,64.1333848 33.9212726,63.8000052 34.5728684,63.3539299 C37.75,61.178904 41.25,55.1702431 41.25,55.1702431 C39.855164,52.9466133 37.9501796,51.2090228 36.3357861,50 C36.6196254,50.8829714 36.6214599,51.6933363 36.4587224,52.4161016 C34.597346,50.3721403 32.6357457,49.0372719 31.7018288,48.4599082 C31.9393117,48.3201417 32.1457026,48.1886069 32.2987739,48.0756014 C33.2349611,46.5601439 33.6284601,45.2111763 33.725174,44.0701956 C35.0215845,43.5941252 36.0170135,42.8551548 36.7641816,42.095662 C38.2603585,41.4575695 39.313553,40.4801336 40.0194162,39.5984383 C41.9699183,40.4465001 43.7461949,42.2136627 43.7461949,42.2136627 C43.7996336,40.8335645 43.2871649,39.3539975 42.4006654,37.9172112 C44.3933551,38.7037392 46.2464697,40.4898565 46.2464697,40.4898565 C46.3920209,36.7231569 42.013355,32.1833251 37.4648794,30.0061851 C37.4373207,29.9858816 37.123651,29.7823418 36.4190381,29.6866495 L36.2828276,29.6473231 C34.1781618,29.0811659 29.5809976,29.4356048 27.6567764,30.2614711 Z M36.2628746,45.006806 C36.25,45 46.5850515,53.4309452 52.3646907,70 C52.3646907,70 52.8157216,67.5687823 55.6443299,61.2830291 C55.6443299,61.2830291 55.4203831,60.8828989 55.0332826,60.2021442 L54.869885,59.915159 C53.8962897,58.2073086 52.1260931,55.1395377 50.2672704,52.1035652 L49.9318781,51.5577341 C49.707849,51.1944766 49.4831554,50.8328793 49.2590206,50.4753473 C49.2590206,50.4753473 49.5617967,50.761836 50.0672011,51.2635072 L50.4300305,51.6260076 C51.8699885,53.0737916 54.3857388,55.7100699 56.5206186,58.4976846 L61.249,49.482 L56.4819588,53.6897303 C56.4819588,53.6897303 50.257732,48.2552438 43.9304124,45.1906837 C43.9304124,45.1906837 48.0636219,51.3211356 51.7574438,58.6516738 L51.929,58.996 L51.6875613,58.6405839 C48.0480209,53.3243877 42.6575026,47.1309663 36.2628746,45.006806 Z M29.6468673,41.8598195 C31.0348757,42.4264634 31.9995756,43.2477413 32.5242273,43.7789883 C32.1729058,45.4239513 31.3727404,47.3814682 29.6416961,49.1681672 C29.3865938,49.3284581 29.237394,49.4127623 29.237394,49.4127623 C32.4470648,44.9862723 29.8510595,42.0772105 29.6580149,41.8714956 L29.6468673,41.8598195 Z M60.4431823,28.0896905 C60.2258078,27.9524757 60.0139862,27.8406753 59.8071153,27.7527986 C58.6637064,27.9946766 57.5234613,28.2507218 56.386606,28.5214165 C54.7443623,29.9972771 53.217557,32.8649946 51.25,35.7483104 L53.3618382,37.4932367 C53.3618382,37.5 53.5539199,36.8421995 53.8939094,35.8893762 L58.7206516,39.2929455 C58.4336139,38.0970947 58.1465763,36.9012438 57.8595387,35.705393 C59.5607617,32.7429443 60.3658672,31.4791474 62.8161884,29.1418026 C62.5641554,29.8348525 62.3191233,30.5279024 62.0670902,31.2209524 C63.9643389,30.7317407 65.7985794,32.817685 65.490539,35.0463161 C64.5564692,32.9542924 62.6668032,32.8992391 61.9125536,32.9687801 L61.7774621,32.9837829 C61.6587486,32.9993137 61.5910278,33.0147286 61.5910278,33.0147286 C64.1953692,33.959179 65.1054885,38.3552897 63.4182673,39.197821 C61.7310462,40.0403523 59.2737241,40.0879145 59.2737241,40.0879145 C60.4078727,40.8896781 61.5420214,41.6982364 62.6761701,42.5 C62.6761701,42.5 66.0226087,42.3844917 66.8767207,40.4276449 C67.7308326,38.470798 69.7330951,33.0826747 68.1718905,31.26172 C64.8447717,27.3762252 62.5276877,26.8650592 60.4431823,28.0896905 Z M33.4511982,41.5463181 C33.8412396,41.7881278 34.1449623,41.8919871 34.1449623,41.8919871 C33.943333,41.9381738 33.7516452,41.9611279 33.5678331,41.965043 C33.5331061,41.8168863 33.4933868,41.6777165 33.4511982,41.5463181 Z M60.0356063,28.3523519 C58.3987504,29.5026718 56.8767517,31.6835236 55.0780819,34.0698601 L54.7920754,34.4477766 C54.5622455,34.7500952 54.3277212,35.0549737 54.087725,35.3607742 C54.5078089,34.2345657 55.0916662,32.8392023 55.7830161,31.6294728 C56.987005,29.5170902 58.1662339,28.1225295 60.0356063,28.3523519 Z M31.2600425,17.5 C31.2600425,17.5 32.4946834,20.0075339 37.0498582,21.6001532 C33.6383507,21.4024876 28.8297495,20.0583622 26.25,18.0704062 L26.25,18.0817014 C26.25,18.0817014 26.3799622,22.5094145 33.2809546,25 C33.2809546,25 31.9813327,23.3283145 31.3380198,21.9503035 C33.7228261,25.2089607 40.8967391,22.5828331 45.7963138,24.3053469 C45.7963138,24.3053469 43.5479679,22.2665683 38.2909972,20.9958614 C38.2909972,20.9958614 38.4787186,20.9891357 38.8159825,20.9869637 L39.20168,20.9867275 C41.6137118,20.9985291 48.276793,21.2686468 52.5785047,23.7506587 L52.9441725,23.6594144 C46.3191252,17.0557355 37.1951876,21.1015992 31.2600425,17.5 Z" id="Combined-Shape" fill="#000000" fill-rule="nonzero"></path>
  </g>
</svg>
