<svg xmlns="http://www.w3.org/2000/svg" viewBox="0 0 120 120"><g id="Layer_1" data-name="Layer 1"><path d="M16.29,49.31A45,45,0,0,1,105,60c0,.42,0,.84,0,1.26a36.92,36.92,0,0,1,1.74,3.64c.28.71.53,1.42.77,2.14A48,48,0,1,0,12.4,53.88,24.69,24.69,0,0,1,16.29,49.31Z"/><path d="M51.27,104.14A44.92,44.92,0,0,1,27.08,90.63a23.78,23.78,0,0,1-5.65-2.1,48,48,0,0,0,34.9,19.32A34.6,34.6,0,0,1,51.27,104.14Z"/><path d="M29.88,59.36A.74.74,0,0,0,28.65,59c-.36.34-.73.68-1.08,1a.74.74,0,0,0-.17.81.75.75,0,0,0,.69.47.83.83,0,0,0,.52-.21l1.06-1A.73.73,0,0,0,29.88,59.36Z"/><path d="M25.45,62.13l-1,1.07a.75.75,0,0,0,.76,1.23.83.83,0,0,0,.32-.2l1-1.07a.74.74,0,0,0-.06-1A.75.75,0,0,0,25.45,62.13Z"/><path d="M22.39,65.4l-1,1.11a.76.76,0,0,0-.14.74.73.73,0,0,0,1.24.2c.32-.36.64-.73,1-1.09a.74.74,0,0,0-.05-1,.75.75,0,0,0-1.05.06Z"/><path d="M31.11,58.22a.75.75,0,0,0,.74-.18l1.1-1A.75.75,0,0,0,33,56,.76.76,0,0,0,32,55.94c-.37.33-.75.65-1.12,1a.74.74,0,0,0,.26,1.26Z"/><path d="M37.93,52.54a.76.76,0,0,0,.74-.1l1.19-.85a.74.74,0,0,0,.16-1,.84.84,0,0,0-.31-.25.76.76,0,0,0-.74.09l-1.2.9a.72.72,0,0,0-.29.67A.79.79,0,0,0,37.93,52.54Z"/><path d="M34.46,55.31a.74.74,0,0,0,.73-.12l1.16-.94a.74.74,0,0,0,.1-1,.73.73,0,0,0-1-.11h0L34.25,54a.74.74,0,0,0-.12,1,.69.69,0,0,0,.33.23Z"/><path d="M39.88,70.22l-1,1.07a.74.74,0,0,0,1,1c.34-.34.68-.69,1-1,.05-.25.09-.51.15-.76a.89.89,0,0,0-.15-.31A.74.74,0,0,0,39.88,70.22Z"/><path d="M30.17,79.27,29,80.2a.71.71,0,0,0-.27.68.74.74,0,0,0,.84.63.78.78,0,0,0,.36-.16l1.16-.94a.74.74,0,0,0,.1-1A.75.75,0,0,0,30.17,79.27Z"/><path d="M34.26,76.22a.75.75,0,0,0-.73.16c-.36.33-.73.66-1.11,1a.74.74,0,0,0,1,1.12l1.12-1a.76.76,0,0,0,.24-.71A.81.81,0,0,0,34.26,76.22Z"/><path d="M27.42,81.91a.76.76,0,0,0-.74.1l-1.19.88a.74.74,0,0,0-.3.68.75.75,0,0,0,.82.65.67.67,0,0,0,.36-.14l1.21-.89a.76.76,0,0,0-.16-1.28Z"/><path d="M36.76,73.33l-1.06,1a.74.74,0,0,0,0,1.05.75.75,0,0,0,1.06,0l1.07-1a.74.74,0,0,0-1-1Z"/><path d="M40.93,71.27c-.33.36-.67.7-1,1a.76.76,0,0,1-1.05,0,.74.74,0,0,1,0-1l1-1.06a.73.73,0,0,1,1,0,.64.64,0,0,1,.15.31,33.41,33.41,0,0,1,3.54-9.4c-2.83,3.12-5.73,6.22-8.78,9.26-4.91,4.88-10,9.54-15.09,13.85.49.34,1,.66,1.51,1l.84-.59a.75.75,0,0,1,1,.19.74.74,0,0,1-.19,1l-.22.14a20.79,20.79,0,0,0,17.71,0,31.45,31.45,0,0,1-.52-14.69ZM27.6,83.19c-.4.3-.8.6-1.21.89a.74.74,0,0,1-1-.16.67.67,0,0,1-.14-.35.72.72,0,0,1,.3-.68L26.7,82a.74.74,0,0,1,.9,1.18Zm3.52-2.78-1.16,1a.74.74,0,0,1-1-.1.83.83,0,0,1-.16-.36.73.73,0,0,1,.27-.69c.38-.3.76-.62,1.14-.93a.73.73,0,1,1,.95,1.11Zm3.4-2.92-1.12,1a.74.74,0,0,1-1-1.12c.38-.32.75-.65,1.11-1a.75.75,0,0,1,.73-.16.81.81,0,0,1,.5.56A.76.76,0,0,1,34.52,77.49Zm3.28-3.06-1.08,1a.74.74,0,0,1-1-1l1.09-1.09a.76.76,0,0,1,1.05,0,.74.74,0,0,1,0,1S37.82,74.41,37.8,74.43Z"/><path d="M44.64,50.24c-.5-.34-1-.67-1.52-1l-.87.58a.74.74,0,0,1-1-.39.76.76,0,0,1,.17-.83l.22-.15A20.79,20.79,0,0,0,13.88,76.13l.15-.21a.74.74,0,0,1,1.22.84h0c-.2.28-.39.57-.59.86.31.51.63,1,1,1.51C20,74,24.63,69,29.53,64.09S39.49,54.55,44.64,50.24Zm-6.87,1,1.2-.89a.76.76,0,0,1,.74-.09.74.74,0,0,1,.43,1,.69.69,0,0,1-.28.35l-1.17.85a.74.74,0,0,1-1.19-.5A.74.74,0,0,1,37.77,51.26ZM34.25,54l1.16-.94a.73.73,0,0,1,1,.11.74.74,0,0,1-.1,1h0l-1.16.93a.75.75,0,0,1-1-.11A.7.7,0,0,1,34,54.7.73.73,0,0,1,34.25,54Zm-3.4,2.92c.37-.34.75-.66,1.12-1A.76.76,0,0,1,33,56,.75.75,0,0,1,33,57.06l-1.1,1a.79.79,0,0,1-.74.15.74.74,0,0,1-.47-.93A.72.72,0,0,1,30.85,56.93Zm-13,16.26L17,74.37a.76.76,0,0,1-.68.3.75.75,0,0,1-.66-.82.8.8,0,0,1,.14-.36l.89-1.2a.84.84,0,0,1,.7-.29.75.75,0,0,1,.58.45A.71.71,0,0,1,17.85,73.19Zm2.75-3.46-.94,1.14a.74.74,0,0,1-1.31-.57.82.82,0,0,1,.15-.36c.32-.38.63-.8.95-1.15a.73.73,0,0,1,1-.12.78.78,0,0,1,.24.33A.74.74,0,0,1,20.6,69.73Zm2.89-3.34c-.33.36-.65.73-1,1.1a.77.77,0,0,1-1.28-.28.72.72,0,0,1,.14-.73q.48-.56,1-1.11a.75.75,0,0,1,1.05-.06.74.74,0,0,1,.05,1h0Zm3-3.22-1,1.06a.73.73,0,0,1-1,0,.74.74,0,0,1,0-1.05l1-1.07a.74.74,0,0,1,1.07,1Zm1.57-1.87a.73.73,0,0,1-.69-.46.74.74,0,0,1,.17-.81c.35-.35.72-.69,1.08-1a.76.76,0,0,1,.72-.17.74.74,0,0,1,.5.93.72.72,0,0,1-.2.32l-1.06,1a.85.85,0,0,1-.52.21Z"/><path d="M48.82,54.11c-.29-.35-.59-.68-.91-1L18.5,82.41c.33.3.67.61,1,.89,5.17-4.33,10.3-9,15.25-14S44.47,59.26,48.82,54.11Z"/><path d="M45.85,51.15c-5.16,4.34-10.3,9-15.29,14s-9.66,10.06-14,15.2q.43.52.9,1L46.87,52.05C46.54,51.74,46.2,51.45,45.85,51.15Z"/><path d="M83.41,44.94a19.75,19.75,0,0,0,1.22-5,24.26,24.26,0,0,1-14-7.15,24.25,24.25,0,0,1-7.18-14A19.42,19.42,0,0,0,45.85,36.3a24.32,24.32,0,0,1,14,7.15A27.52,27.52,0,0,1,62.08,46a33.53,33.53,0,0,1,21.33-1Z"/><path d="M84.7,37.56A19.41,19.41,0,0,0,65.83,18.75,21.77,21.77,0,0,0,72.31,31.1,22,22,0,0,0,84.7,37.56Z"/><path d="M58.16,45.19a22.06,22.06,0,0,0-12.39-6.48,19.24,19.24,0,0,0,5.7,13.14c.11.12.24.22.36.33A34.12,34.12,0,0,1,59.77,47C59.27,46.37,58.74,45.77,58.16,45.19Z"/><path d="M62.61,48.8a31.4,31.4,0,1,0,11.72-2.27A31,31,0,0,0,62.61,48.8ZM51,90.67a21.12,21.12,0,0,1-4.12-3.29A29.25,29.25,0,0,1,45.93,71a24.56,24.56,0,0,1,2-3.3c.23-.33.44-.66.69-1l7,4.16v.17a53.94,53.94,0,0,0,1.12,11.2h0l-5.41,8.55a2.39,2.39,0,0,1-.34-.21Zm20.93,14.4a25.45,25.45,0,0,0,3.74,1.56,29.44,29.44,0,0,1-15.81-3.81l11.79,2.09ZM71.85,103,58,100.48A42.34,42.34,0,0,1,53.6,94.2c-.32-.56-.68-1.11-1-1.71L58.1,84l.4.11a91.86,91.86,0,0,0,10.37,2.06c.2,0,.37.06.52.06l6.53,11.28q-1.69,2.42-3.45,4.72c-.22.21-.43.46-.65.71ZM95,98.12a28.58,28.58,0,0,1-3.51,3,26.18,26.18,0,0,0-1.06-4.78l7-13a31.78,31.78,0,0,0,5.49-3.08,2.31,2.31,0,0,0,.55-.53A28.91,28.91,0,0,1,95,98.13Zm-.31-16.79.81,1.49L88.76,95.33h-.12a60.54,60.54,0,0,1-11,1L70.89,84.84C72,82.9,73,81,74,79c.7-1.32,1.38-2.64,2.07-4L90,73.63a78.59,78.59,0,0,1,4.68,7.7ZM91.83,66.5c-.67,1.73-1.37,3.45-2.07,5.17L76.22,73.06a7.79,7.79,0,0,0-.51-.63L70.88,67V67l-1.94-1.93L72.7,53.78a5.76,5.76,0,0,1,.81-.15c2-.21,4.1-.44,6.15-.56a30.27,30.27,0,0,1,3.81,0l9.32,10.46C92.52,64.48,92.2,65.51,91.83,66.5ZM95,57a29,29,0,0,1,6,8.62,29.45,29.45,0,0,0-5.56-3l-.93-.35L85.26,52a12.3,12.3,0,0,0,.12-1.35A29.13,29.13,0,0,1,95,57Zm-30-6.9a.21.21,0,0,0,.08.06,23.59,23.59,0,0,1,5.83,3L67.34,63.78h0c-.72.3-1.45.57-2.16.89a63.17,63.17,0,0,0-8.46,4.55l-6.94-4.1a1.72,1.72,0,0,1,.12-.63c.46-1.24.92-2.49,1.45-3.7a30.07,30.07,0,0,1,1.37-2.72c.33-.36.68-.73,1-1.07a29.07,29.07,0,0,1,11.35-7Z"/></g></svg>