<?xml version="1.0" encoding="UTF-8"?>
<svg width="120px" height="120px" viewBox="0 0 120 120" version="1.1" xmlns="http://www.w3.org/2000/svg" xmlns:xlink="http://www.w3.org/1999/xlink">
    <title>h5/sports-icon/black/icon-e1</title>
    <g id="h5/sports-icon/black/icon-e1" stroke="none" stroke-width="1" fill="none" fill-rule="evenodd">
        <path d="M59.8934956,20.8780517 C62.4292916,22.2390569 66.2198649,24.1736343 70.1961308,25.8472053 L92.6731508,26.2305899 C87.4212747,24.2753486 82.9858853,21.4506208 81.7783825,20.8949038 C82.2034523,21.8841603 82.4889021,23.1871864 81.651783,23.1871864 C81.5816725,23.1871864 81.50395,23.1781585 81.417614,23.158899 C73.6049025,21.9116453 59.8918931,14 59.8918931,14 C59.8918931,14 46.1941077,21.9116453 38.3900097,23.158899 C38.303874,23.1781585 38.2261515,23.1871864 38.1562414,23.1871864 C37.3203241,23.1871864 37.6049727,21.8841603 38.0298422,20.8949038 C36.9405256,21.3966541 33.2234681,23.7481196 28.6504619,25.6393631 C35.4778206,25.56393 42.8091736,25.5767697 50.1026669,25.6337457 C53.8900352,24.0111322 57.466471,22.1818802 59.8934956,20.8780517 Z M70.2596309,28.858008 L97.1127469,29.3160232 L93.5867905,78.0901246 L102.391265,78.31843 L104,87.1808128 L84.6761489,86.5031189 L88.453301,39.7117437 L65.3534996,39.5879612 L70.2596309,28.858008 Z M86.5855778,41.9077288 L83.1179134,86.7061462 L52.8209705,86.2174362 L56.9394605,76.8852016 L76.8708691,77.2126132 L78.923704,50.4595521 L60.4473884,50.3179145 L64.9270476,42.1268057 L86.5855778,41.9077288 Z M67.7392592,28.8483783 C65.905169,33.0555776 64.616338,35.8554285 63.0416566,39.5967885 C53.7722496,39.4627744 45.6476466,39.8030257 36.3668215,39.8824712 C36.210375,44.118961 36.0537282,48.3556515 35.8972816,52.5923419 C40.0767896,52.5566491 43.5833554,52.5319694 47.0595453,52.528574 L48.9564985,52.5288946 C52.1259403,52.5331526 55.3668319,52.5565444 59.1619428,52.6067866 C58.0797111,54.9369336 57.2224877,56.8045434 56.3896356,58.6218828 L55.8912439,59.7095521 C55.3094536,60.9791573 54.719943,62.2645322 54.0538934,63.7070841 C45.3660027,63.5921289 44.176328,63.8611601 35.4782213,63.9355901 L35.0086813,76.6454609 C35.8589887,76.6382012 36.6446213,76.6341098 37.3779121,76.6326702 L38.4401335,76.6324352 C40.7549984,76.6361006 42.541042,76.6671783 44.2762483,76.7056526 L44.9687525,76.7213893 L45.662632,76.7376303 C48.2176871,76.7977573 50.9375709,76.8623133 55.3303048,76.8681489 C54.0008097,79.8920922 52.844788,82.8259572 51.2102122,86.3648918 C47.8494393,86.3259098 44.1209721,86.2888082 39.7467285,86.2865657 L38.639553,86.2867503 C33.7820985,86.2908631 28.1395568,86.3391121 21.3583708,86.4734271 C21.6301365,77.8043541 21.8741046,69.4616418 22.1145979,61.1597245 L22.3204514,54.0471257 C22.5609447,45.7452084 22.8049128,37.4024961 23.0766785,28.7334231 C36.9763821,28.4581726 53.8637938,28.6477584 67.7392592,28.8483783 Z M100.215176,28.0719794 C100.757631,28.1201281 101.297081,28.1460081 101.831323,28.1460081 C102.245776,28.1460081 102.656423,28.1305604 103.063464,28.0984612 C104.329059,33.4098723 104.949436,53.328015 97.3434504,67.7981245 L100.215176,28.0719794 Z M19.1528753,59.6288833 C19.1731072,58.9337355 19.1931387,58.2369827 19.2131703,57.5452453 C19.4831958,48.2116064 19.7622355,38.5601856 20.0735261,28.6389311 L20.0929567,28.0232287 C19.3896484,28.1024736 18.6899458,28.1460081 17.999057,28.1460081 C17.5858058,28.1460081 17.1743575,28.1305604 16.7683176,28.0984612 C15.7302818,32.4601378 15.128133,46.6724508 19.1528753,59.6288833 Z M45.4813245,89.3190595 C42.6190139,89.2985963 39.4906842,89.2891672 35.9893667,89.3034112 C42.372826,94.7055025 52.991359,103.181893 59.891833,106 C66.6252437,103.253113 76.8948268,95.1310172 83.3279644,89.7192962 L74.0072765,89.5688313 C69.221535,93.3559326 63.9738656,97.1779418 59.8934355,99.3472444 C55.727671,97.1299936 50.3445881,93.1866094 45.4813245,89.3190595 Z" id="Combined-Shape" fill="#000000" fill-rule="nonzero"></path>
    </g>
</svg>