<?xml version="1.0" encoding="UTF-8"?>
<svg viewBox="0 0 40 40" version="1.1" xmlns="http://www.w3.org/2000/svg" xmlns:xlink="http://www.w3.org/1999/xlink">
    <title>icon/horsebook</title>
    <defs>
        <polygon id="path-1" points="0 0 30 0 30 24.2113114 0 24.2113114"></polygon>
    </defs>
    <g id="icon/horsebook" stroke="none" stroke-width="1" fill="none" fill-rule="evenodd">
        <g id="Group-8" transform="translate(5.000000, 7.000000)">
            <path d="M0.613067759,23.9314151 C0.613067759,23.9314151 6.61615384,20.8414702 15.0067096,26" id="Stroke-1" stroke="#000000" stroke-width="0.998907533" stroke-linecap="round" stroke-linejoin="round"></path>
            <path d="M29.385518,23.9314151 C29.385518,23.9314151 23.382432,20.8414702 14.9918763,26" id="Stroke-3" stroke="#000000" stroke-width="0.998907533" stroke-linecap="round" stroke-linejoin="round"></path>
            <g id="Group-7">
                <mask id="mask-2" fill="white">
                    <use xlink:href="#path-1"></use>
                </mask>
                <g id="Clip-6"></g>
                <path d="M25.3859957,17.0738005 C25.3859957,17.0738005 23.5359189,15.9459014 20.2166541,16.9854284 C19.9181026,17.0972022 17.5655164,18.0351167 16.755656,20.150505 C16.755656,20.150505 16.6670333,18.8683395 17.8650107,17.4771715 C18.6151608,16.606075 19.4608473,16.2378065 19.9884979,16.0844639 C19.719173,15.4399941 19.257518,14.5430326 18.8115763,13.6691647 C18.131193,12.3358851 18.0425703,11.5534686 18.2512421,10.8788229 C18.4269162,10.3119481 18.9633662,9.97662675 19.5108154,9.70535207 C19.9105602,10.2454381 20.3530451,10.7288674 20.8612112,11.1553322 C21.5359378,11.7212832 22.2675462,12.1711496 23.1622581,12.3127913 C23.2700509,12.3297268 23.3344752,12.3685243 23.356788,12.4870722 C23.3844433,12.6333327 23.437554,12.7755903 23.4865793,12.917232 C23.7122214,13.5653968 24.2027888,13.9118032 24.8966854,13.8991786 C25.4262216,13.8896332 25.9064182,13.7054989 26.3341326,13.416673 C26.4909507,13.3110575 26.6260846,13.1296945 26.6971084,12.954182 C27.0566274,12.0670737 26.9626622,11.2221501 26.4060993,10.4277248 C26.193342,10.1241189 25.9413016,9.84422253 25.8275378,9.47718574 C25.7144024,9.11076477 25.5852396,8.74742297 25.4359638,8.3936266 C25.0648171,7.51390836 24.6911563,6.63511388 24.2936113,5.76648065 C24.010773,5.14849168 23.6691672,4.5597548 23.2049981,4.04830504 C23.1588011,3.99749877 23.1214036,3.92636999 23.1104044,3.85985997 C22.9642712,2.98845549 22.8505074,2.11458768 22.9752705,1.22994277 C22.9988404,1.06089646 23.0466086,0.894929321 23.0833776,0.727422594 C23.0686071,0.713566339 23.054151,0.700018001 23.0393805,0.686161746 C22.7172591,0.942656422 22.3951377,1.19884318 22.0384472,1.48305037 C22.1305267,0.985148937 22.2185209,0.508493766 22.3124861,-0.000184750066 C21.7725791,0.390253723 21.2263869,0.754211354 20.717278,1.16281692 C20.3750436,1.43717077 20.0274667,1.72137795 19.8338796,2.12074601 C19.6280362,1.94831262 19.4369632,1.78480881 19.2276628,1.64901751 C18.8489738,1.402992 18.4530001,1.18006026 18.0491699,0.975603517 C17.1626289,0.521734187 16.0652162,0.355767044 15.089424,0.505106681 C15.2091589,0.703097169 15.4065172,0.850897222 15.5218524,1.04981146 C15.7232961,1.37651116 15.6485011,1.73030754 15.3424072,1.98557055 C14.5686873,2.59709327 13.6343781,1.99911888 12.8110043,1.83807841 C12.0866239,1.70998503 11.3169895,1.53262497 10.6061225,1.80574715 C10.2488034,1.93630386 9.84277332,2.11274018 9.61650267,2.41357487 C9.740323,2.50902907 9.931396,2.50687365 10.0655871,2.58908743 C10.3330264,2.72949748 10.6010943,2.87206295 10.8506205,3.03987759 C11.1567144,3.24587392 11.2770778,3.65632698 10.888018,3.88295373 C10.6177503,4.04060712 10.3025427,4.12713173 10.0027341,4.23243927 C9.68469813,4.34390514 9.35566289,4.42704267 9.0413981,4.54713022 C8.80852789,4.63611816 8.59325651,4.76790654 8.36730012,4.87444575 C7.87390439,5.09553 7.626578,5.57002975 7.43990471,6.04021867 C7.43267662,6.05869367 7.48170193,6.10303369 7.49364399,6.10703661 C7.7783679,6.10488119 8.06969136,6.00111324 8.354101,6.01835658 C8.5656012,6.02574658 8.84403981,6.1307462 8.85409628,6.35244628 C8.87326644,6.77182893 8.54140282,6.80169686 8.25102215,7.02185735 C8.02003752,7.19675408 7.78213907,7.36333706 7.55241151,7.53977337 C7.12752551,7.86616516 6.88082765,8.1275865 6.55870623,8.59038542 C6.28309601,8.98636639 6.03734094,9.52306534 6.00402887,10.0012601 C6.00308608,10.0151163 6.05808242,10.0514505 6.07505272,10.0452922 C6.17467466,10.0092659 6.26863983,9.95692007 6.3688903,9.9224334 C6.67529847,9.81712586 6.98296371,9.80542502 7.21489112,10.0582247 C7.34939645,10.205101 8.2032539,11.5620902 8.16239947,11.7563857 C9.34654922,6.16307746 14.0834624,5.28890173 14.0834624,5.28890173 C11.5797148,6.14367871 9.53479383,9.57941411 9.06936767,11.4182931 C8.76641641,12.6145498 8.65862358,13.6743993 8.90469292,14.741331 C9.21895771,16.1035548 9.96942204,17.2951927 10.1513814,17.5563061 C10.3063139,17.7792379 10.4942442,17.9975509 10.7070015,18.218943 C12.1711612,19.7403598 14.9888593,20.305695 14.9888593,22.6095284 C14.9888593,22.6095284 14.478179,21.3489171 13.1029563,20.7401656 C11.7283621,20.13203 9.92322511,19.5229706 8.26013583,16.8748863 C6.25512644,16.4773657 4.61403569,17.0738005 4.61403569,17.0738005 L0,22.1990753 C5.15111423,20.6126881 10.3798519,22.1685915 13.3688243,23.4461382 L14.993259,24.2113114 L16.3386266,23.572692 C19.2707171,22.2754387 24.6788999,20.5603422 30.0000314,22.1990753 L25.3859957,17.0738005 Z" id="Fill-5" fill="#000000" mask="url(#mask-2)"></path>
            </g>
        </g>
    </g>
</svg>
