<svg xmlns="http://www.w3.org/2000/svg" viewBox="0 0 120 120"><g id="Layer_1" data-name="Layer 1"><path d="M20.35,84.42a6.2,6.2,0,0,1,1.79-2.24A43.87,43.87,0,0,1,60,16.1c1.07,0,2.13,0,3.18.13l2.47-3A48,48,0,0,0,60,12.9,47.07,47.07,0,0,0,20.12,85C20.2,84.82,20.26,84.62,20.35,84.42Z"/><path d="M100,35.22a8.82,8.82,0,0,1-.46,1.37,7,7,0,0,1-1.3,1.95A43.86,43.86,0,0,1,60,103.9a41.94,41.94,0,0,1-4.21-.21l-2.44,2.93A47.07,47.07,0,0,0,100,35.22Z"/><path d="M83.33,63.85H68.22a3.83,3.83,0,0,1-3.64-4V38.91a1.52,1.52,0,0,0-1.52-1.52H58.42a3.54,3.54,0,0,1-3.21-2.15,4.34,4.34,0,0,1,.54-4.55L72.61,10.34a4.26,4.26,0,0,1,6-.36,3.06,3.06,0,0,1,.36.36L95.83,30.61a4.32,4.32,0,0,1,.54,4.55,3.5,3.5,0,0,1-3.2,2.14h-4.7A1.52,1.52,0,0,0,87,38.82V59.76a3.84,3.84,0,0,1-3.57,4.09Zm-7.56-52.4A1.49,1.49,0,0,0,74.6,12L57.75,32.26a1.76,1.76,0,0,0-.19,1.82,1,1,0,0,0,.86.66h4.66a4.14,4.14,0,0,1,4.17,4.09v21c0,.77.46,1.42,1,1.42H83.37c.56,0,1-.65,1-1.42V38.87a4.12,4.12,0,0,1,4.13-4.12h4.66a1,1,0,0,0,.85-.66,1.76,1.76,0,0,0-.19-1.82L77,12A1.49,1.49,0,0,0,75.77,11.45Z"/><path d="M51.39,57.08H35.76a2.62,2.62,0,0,0-2.4,2.8V81.54a2.92,2.92,0,0,1-2.92,2.92H25.62c-2.12,0-3.2,3-1.72,4.78l15.71,18.88a5,5,0,0,0,7.93,0L63.25,89.27c1.47-1.82.4-4.77-1.72-4.77H56.71a2.93,2.93,0,0,1-2.92-2.91V59.88A2.62,2.62,0,0,0,51.39,57.08Z"/></g></svg>